<svg width="50" height="50" viewBox="0 0 50 50" fill="none" xmlns="http://www.w3.org/2000/svg">
<circle cx="25" cy="25" r="24" fill="#D4B190" stroke="#FFD600" stroke-width="2"/>
<g clip-path="url(#clip0_1694_492)">
<path d="M17.4165 15.25H33.6665C34.2411 15.25 34.7922 15.4783 35.1986 15.8846C35.6049 16.2909 35.8332 16.842 35.8332 17.4167V20.6667C35.8332 21.2413 35.6049 21.7924 35.1986 22.1987C34.7922 22.6051 34.2411 22.8333 33.6665 22.8333H31.4998V26.0833C31.4998 27.2326 31.0433 28.3348 30.2306 29.1475C29.418 29.9601 28.3158 30.4167 27.1665 30.4167H20.6665C19.5172 30.4167 18.415 29.9601 17.6024 29.1475C16.7897 28.3348 16.3332 27.2326 16.3332 26.0833V16.3333C16.3332 16.046 16.4473 15.7705 16.6505 15.5673C16.8536 15.3641 17.1292 15.25 17.4165 15.25ZM31.4998 17.4167V20.6667H33.6665V17.4167H31.4998ZM14.1665 32.5833H33.6665V34.75H14.1665V32.5833Z" fill="#A97B50"/>
</g>
<defs>
<clipPath id="clip0_1694_492">
<rect width="26" height="26" fill="white" transform="translate(12 12)"/>
</clipPath>
</defs>
</svg>
